<svg id="visual" viewBox="0 0 900 675" width="900" height="675" xmlns="http://www.w3.org/2000/svg" xmlns:xlink="http://www.w3.org/1999/xlink" version="1.1"><path d="M0 181L21.5 176.3C43 171.7 86 162.3 128.8 165.2C171.7 168 214.3 183 257.2 180.8C300 178.7 343 159.3 385.8 151.8C428.7 144.3 471.3 148.7 514.2 148.3C557 148 600 143 642.8 144.3C685.7 145.7 728.3 153.3 771.2 152.3C814 151.3 857 141.7 878.5 136.8L900 132L900 0L878.5 0C857 0 814 0 771.2 0C728.3 0 685.7 0 642.8 0C600 0 557 0 514.2 0C471.3 0 428.7 0 385.8 0C343 0 300 0 257.2 0C214.3 0 171.7 0 128.8 0C86 0 43 0 21.5 0L0 0Z" fill="#418fd8"></path><path d="M0 134L21.5 137C43 140 86 146 128.8 152.5C171.7 159 214.3 166 257.2 167C300 168 343 163 385.8 159.5C428.7 156 471.3 154 514.2 155.7C557 157.3 600 162.7 642.8 160.8C685.7 159 728.3 150 771.2 148.7C814 147.3 857 153.7 878.5 156.8L900 160L900 0L878.5 0C857 0 814 0 771.2 0C728.3 0 685.7 0 642.8 0C600 0 557 0 514.2 0C471.3 0 428.7 0 385.8 0C343 0 300 0 257.2 0C214.3 0 171.7 0 128.8 0C86 0 43 0 21.5 0L0 0Z" fill="#0773db"></path><path d="M0 125L21.5 116.2C43 107.3 86 89.7 128.8 88.3C171.7 87 214.3 102 257.2 102.2C300 102.3 343 87.7 385.8 86.8C428.7 86 471.3 99 514.2 108.5C557 118 600 124 642.8 122C685.7 120 728.3 110 771.2 105C814 100 857 100 878.5 100L900 100L900 0L878.5 0C857 0 814 0 771.2 0C728.3 0 685.7 0 642.8 0C600 0 557 0 514.2 0C471.3 0 428.7 0 385.8 0C343 0 300 0 257.2 0C214.3 0 171.7 0 128.8 0C86 0 43 0 21.5 0L0 0Z" fill="#0051d5"></path><path d="M0 58L21.5 59C43 60 86 62 128.8 61.5C171.7 61 214.3 58 257.2 59C300 60 343 65 385.8 64.2C428.7 63.3 471.3 56.7 514.2 59C557 61.3 600 72.7 642.8 73.2C685.7 73.7 728.3 63.3 771.2 60.8C814 58.3 857 63.7 878.5 66.3L900 69L900 0L878.5 0C857 0 814 0 771.2 0C728.3 0 685.7 0 642.8 0C600 0 557 0 514.2 0C471.3 0 428.7 0 385.8 0C343 0 300 0 257.2 0C214.3 0 171.7 0 128.8 0C86 0 43 0 21.5 0L0 0Z" fill="#2924c7"></path></svg>